<svg width="12" height="14" viewBox="0 0 12 14" fill="none" xmlns="http://www.w3.org/2000/svg">
<path d="M11.414 4.87857L7.121 0.585573C6.74594 0.210631 6.23733 0 5.707 0C5.17667 0 4.66806 0.210631 4.293 0.585573L0 4.87857L1.414 6.29257L4.707 2.99957V13.9996H6.707V2.99957L10 6.29257L11.414 4.87857Z" fill="#00FF19" fill-opacity="0.9"/>
<path d="M11.414 4.87857L7.121 0.585573C6.74594 0.210631 6.23733 0 5.707 0C5.17667 0 4.66806 0.210631 4.293 0.585573L0 4.87857L1.414 6.29257L4.707 2.99957V13.9996H6.707V2.99957L10 6.29257L11.414 4.87857Z" fill="black" fill-opacity="0.1"/>
</svg>
