<svg width="27" height="27" viewBox="0 0 27 27" fill="none" xmlns="http://www.w3.org/2000/svg">
<path d="M26 18.5C26 22.0355 26 23.8033 24.9016 24.9016C23.8033 26 22.0355 26 18.5 26L8.5 26C4.96447 26 3.1967 26 2.09835 24.9017C1 23.8033 1 22.0355 1 18.5L1 13.5C1 9.96447 1 8.1967 2.09835 7.09835C3.1967 6 4.96446 6 8.5 6L18.5 6C22.0355 6 23.8033 6 24.9016 7.09835C26 8.1967 26 9.96447 26 13.5V18.5Z" stroke="#1C274C" stroke-width="1.5"/>
<path d="M9.75 1L13.5 5.375L17.25 1" stroke="#1C274C" stroke-width="1.5" stroke-linecap="round"/>
<path d="M18.5 6V26" stroke="#1C274C" stroke-width="1.5" stroke-linecap="round"/>
<path d="M23.5 18.5C23.5 17.8096 22.9404 17.25 22.25 17.25C21.5596 17.25 21 17.8096 21 18.5C21 19.1904 21.5596 19.75 22.25 19.75C22.9404 19.75 23.5 19.1904 23.5 18.5Z" fill="#1C274C"/>
<path d="M23.5 13.5C23.5 12.8096 22.9404 12.25 22.25 12.25C21.5596 12.25 21 12.8096 21 13.5C21 14.1904 21.5596 14.75 22.25 14.75C22.9404 14.75 23.5 14.1904 23.5 13.5Z" fill="#1C274C"/>
</svg>
