<svg width="16" height="16" viewBox="0 0 16 16" fill="none" xmlns="http://www.w3.org/2000/svg">
<path d="M2.8 16L1.2 16C0.537258 16 -6.73289e-07 15.403 -6.411e-07 14.6667L-5.43964e-07 12.4444L-3.88546e-07 8.88889C-1.73958e-07 3.97969 3.58172 -5.4282e-07 8 -3.49691e-07C12.4183 -1.56562e-07 16 3.97969 16 8.88889L16 12.4444L16 14.6667C16 15.403 15.4627 16 14.8 16L13.2 16C12.5373 16 12 15.403 12 14.6667L12 12.4444L12 8.88889C12 6.43429 10.2091 4.44444 8 4.44444C5.79086 4.44444 4 6.43429 4 8.88889L4 12.4444L4 14.6667C4 15.403 3.46274 16 2.8 16Z" fill="url(#paint0_linear_58_65)"/>
<defs>
<linearGradient id="paint0_linear_58_65" x1="8" y1="0.222219" x2="8" y2="15.7778" gradientUnits="userSpaceOnUse">
<stop offset="0.680254" stop-color="#D70000"/>
<stop offset="0.684746" stop-color="white"/>
</linearGradient>
</defs>
</svg>
